<svg class="main-svg" xmlns="http://www.w3.org/2000/svg" xmlns:xlink="http://www.w3.org/1999/xlink" width="1000" height="1000" style="" viewBox="0 0 1000 1000"><rect x="0" y="0" width="1000" height="1000" style="fill: rgb(255, 255, 255); fill-opacity: 1;"/><defs id="defs-677055"><g class="clips"><clipPath id="clip677055geo"><rect x="79.75640118974081" y="100" width="840.4871976205184" height="800"/></clipPath></g><g class="gradients"/><g class="patterns"/></defs><g class="bglayer"/><g class="layer-below"><g class="imagelayer"/><g class="shapelayer"/></g><g class="cartesianlayer"/><g class="polarlayer"/><g class="smithlayer"/><g class="ternarylayer"/><g class="geolayer"><g class="geo geo" clip-path="url(#clip677055geo)"><g class="layer bg"><rect x="79.75640118974081" y="100" width="840.4871976205184" height="800" style="pointer-events: all; fill: rgb(255, 255, 255); fill-opacity: 1;"/></g><g class="layer land"><path d="M602.2311979243729,751.9612638583972L601.4322771874545,755.3621126246856L588.4672265174104,757.5140940698466L588.3881393983111,755.7139649900023L577.2070640405856,754.4454602986259L578.4596542727526,749.6289255076125L583.7226542659248,753.0092438614728L590.6466716275381,751.691735714755L597.4612095634839,751.8429594794843L597.414737312345,753.8579227980733ZM497.90599675228384,725.5924415883583L504.5392788831854,724.6795800566547L501.3941652470524,733.4255505502938L502.7582236989953,736.8333344065236L500.9249375155915,742.6510727041693L494.11406215038187,738.423804581013L489.5625790611464,737.1820988172733L477.30230189817536,731.2518513706266L478.70164991191444,725.5583789902132L488.96318110885176,726.7366734907275ZM446.6163071946893,693.2077374916673L450.99862497437164,690.004506137428L455.72050858824565,698.1430556325868L453.76640527741495,712.8943787001697L449.9057984495066,711.9911849761083L446.11108116479954,715.5130192858965L443.0038546286605,712.4059884236092L443.51239822244395,698.8972810310726L441.99829011446246,692.3208802098709ZM448.03953600462705,673.7797584073694L453.566921898684,669.7987912464179L454.4978659769426,679.5224758376269L451.2528079335082,688.0908103040954L447.59053471267146,685.5542138459501L446.0735654470638,677.8406899351124ZM343.69621789843757,512.9726137143364L349.5235040046489,513.6142486329513L355.42200476954906,522.4825919911898L350.08795434685396,529.8790383802691L349.61854736220687,538.6168913134638L342.1652444277266,547.9951365544953L327.9962130687427,552.2190403571498L318.26863488483235,548.1517324410104L326.8053789650903,537.3393395131411L325.8754761686762,524.5880349228917L337.32743361988696,517.4373975606123ZM481.92843431093513,516.9914745694614L484.0209785515267,523.2316262235577L479.58350478407436,533.0181054521997L472.5166419427012,525.8763017024676L471.707548870628,520.7709684859842ZM369.63957002942266,524.2988306458651L361.60399059340057,520.7525591091213L360.5314246423645,517.2091095455155L364.05600420240495,512.2690933437997L362.4119694720266,508.48714453982166L357.6511386442786,513.5338147770569L359.51070034820236,501.85294161993886L357.34744587549824,494.9717618912174L362.19366553228724,482.77909796283393L369.1288839149183,473.7233154913881L374.13200318527544,475.67436765704065L382.12755317900655,476.016589248258L372.8204511534807,488.1812910258335L379.87485978860036,487.68394395668895L387.0618411788398,488.84981298610046L383.73108908593963,498.65039347406616L375.8861698672775,508.5158919590024L382.79368129765095,510.42760542090707L387.09153999646765,526.9969482450571L391.5733715700347,529.6383023882368L394.0378928274446,543.9155599865242L395.4042184819176,548.7860953311728L403.8153627030253,552.2572576643984L401.97077021803847,559.7110456555469L397.87736583369457,562.6446943235065L399.99378126358073,569.1509331058666L392.57290972632893,574.407482861979L382.75180232600405,572.9276939341977L369.642677702326,574.1260520054805L366.6179581353847,571.3738124384195L360.7796070289607,575.9682034090522L354.1655730532316,573.4005977655684L348.1660065161607,576.8047938261764L344.67231216027716,573.7734218444582L357.6908025022347,563.6856599689073L364.68904853674223,562.3154537162414L353.6078210073871,558.282292916133L352.45794015842694,553.2832207891341L360.6369263968181,550.9701084945784L357.86433894498947,543.913037286916L360.59977808149506,536.5076125541863L370.89178875257176,539.4055795353682L373.13040100976247,532.6313509650744L369.6647367833045,524.5250393419226ZM336.1391091158515,359.51183911604437L332.4246415511901,367.8914022668664L336.23556524369496,378.62926830931315L326.1589959328138,386.7154424715276L307.1034932431161,390.7283996897793L301.40816535979957,391.5996499379737L294.5676807278302,387.20467092652507L280.2597347081313,377.7392423612505L287.73049843889237,374.04864470708617L278.0611467559429,363.47789446294746L288.62049827002085,364.43333770903473L289.79749673056244,360.50402205632656L279.51239753172706,353.4115218867273L286.3217763822123,346.1733711941994L295.07135220457945,347.19689418776534L300.3197866989483,359.00783575390915L310.8918611276207,354.56440492151614L316.51338396225526,360.4435618357319L327.4746980293074,355.97816979062463ZM694.5288723357062,213.3822787895176L691.3765257083671,223.31461459356035L691.2233769916543,240.8929316778739L690.0461518246722,258.0253018852103L695.7222214988975,269.78994863375976L709.2669031650576,277.96725356461593L707.0500652269724,280.358385746134L690.9208216088489,284.40790649121027L687.3002559241587,278.5154922157103L677.440996391046,277.6062852912395L673.9913268535767,269.85861867548977L677.5035336879109,265.0001235662189L674.4777512465815,256.9408816423437L678.3920667354184,240.71371881998425L673.6976995677619,240.25868405720894L678.6607032610341,222.7915942618488L674.6939074445057,215.9743427673152L680.3513719904842,203.9903575225204L685.9142441795153,193.74326917898645ZM703.6475512629353,642.6568459219208L691.3133481772753,635.6051775552188L681.4203776367069,633.4394113589477L673.2195489012469,628.2083664338171L678.606512326458,625.3171946951664L683.0770189218196,614.5624892405864L677.8035456338439,611.0378971351741L684.4992512344742,606.4124158817822L688.0745623909056,603.9149694075212L687.3202460106464,601.5312134518965L680.9023975198078,604.8630170890974L674.9443009720075,607.0856385491529L670.5595904661955,611.7971690003819L668.9089774766442,612.2354998287973L663.4320550307127,613.8425854164368L660.8987993868243,616.1200653360162L657.5013558283649,619.2827736623003L658.1645687558837,621.680717930801L659.0546578074544,625.2920565698482L659.2949973931688,626.1906552644897L663.6372524097196,628.2017701939856L671.507650954075,625.9290177936732L671.1515702316897,628.2036761169705L670.8222578026159,630.2608455369464L662.4958416284211,633.8583974034983L652.8295819700004,642.2851994650131L648.049851548746,640.8223196978662L648.2607220863666,639.0178952270824L648.8730173153845,635.267594209787L639.6664102714792,633.3648259867274L640.6742631860823,631.0114297145913L647.6389690307858,625.9761812767017L644.8538951072478,623.7309615106783L632.2538351679132,622.8462907479515L631.0424129684644,618.7412893280348L624.0177145661859,621.2607262292646L622.0185453250633,627.9178514942208L617.0444169349075,637.1363088623596L617.6589664057976,640.0613101280283L614.0786856027382,642.9197789047245L611.4938567016832,642.2187458233201L610.9625980911339,656.1186487915193L607.2724298020044,661.3024161137389L605.2705470206424,669.7456389240433L605.8474876591172,670.8044136583849L608.6364551337832,675.7938687975603L601.3480653918107,675.105502816866L593.248673899998,679.5474268665704L597.6221565825731,682.0464795617395L595.7161450663327,689.376453458327L593.862388328463,690.7877994379161L588.6542638258055,690.9989200506247L585.6180516904273,690.574897946791L584.1439686883807,690.4059914374067L583.1056604610874,690.8050830501554L574.1749669404821,694.2055098502818L580.5988291238535,699.9547110773565L576.36301838713,702.1348321579165L571.58311836306,702.5140451017883L566.6969446205748,697.1059405300934L565.2566560496168,699.638753617465L567.6656254575216,706.2447981725886L569.1001991871101,707.7572899078727L572.3244024843356,711.1517960640823L569.5294687324447,713.5834606601167L569.2320877747685,713.8071836356914L570.2432060555087,714.741723768697L574.4793323888402,718.6552381191955L579.0593633324687,721.5123769596994L579.7416443773109,727.804874497871L571.3567505375732,725.4454314259846L574.4053738079266,730.9519291950849L568.8410481425063,732.4729461934692L572.9181436633252,742.0245510277623L571.8001871850631,742.208210348656L567.0630717997042,742.6468395559364L559.4474989807621,738.3230500475136L555.5681045712493,729.6112475976778L553.5636285591687,722.2807714849431L549.9074816158665,717.343763200792L545.1331327757478,711.1325544545691L544.4405316722675,708.0378510840557L542.9297960959146,707.3007624260154L542.6598401142413,704.7889131822367L537.7156644815258,701.2637240342631L536.7333027441427,695.9431848196992L537.187694185655,688.2259729548152L538.1828671862057,684.7353298551583L536.6723604456478,682.9694903945386L534.9048759793579,682.2262302145659L533.70950157775,680.5439719336957L532.4359176735883,678.6588467524687L531.5130973342614,678.0811914752596L528.7549117637246,676.4435688395732L520.7875810841467,672.4881019766669L515.9388369440862,668.5103810852727L508.32853186654677,665.2463324749698L501.43028171420855,657.003507479734L502.38242532158216,656.4895138976319L503.04076599641184,656.0778719787362L501.4987679101889,654.1352449267678L499.3805052151181,651.3676626375064L499.3082682960607,650.5467115493778L499.23812901973434,647.4659637965032L494.0258359340452,645.6985411547123L491.8870458623105,649.8937426201365L491.5173152029272,650.5061278206832L489.16157520489634,646.6799441085215L489.4264032766703,642.7741828604106L489.71751445275873,642.5717542749958L490.15392834145075,642.2678970763366L491.4593294482851,641.5607698281158L485.1455200670715,639.8273365056842L482.5972642843068,641.3258603593581L478.5740640118557,643.7076753950228L478.87179182288173,649.3694076384958L477.9273525966873,652.2201423566884L477.7711225658677,652.6265259209047L480.3448433149525,658.4248695811884L487.24876407371903,663.8668070060071L487.9084824561691,664.2844836786953L487.90710211640993,664.3865834816754L491.96641577906325,673.7098345296879L501.17006987090315,682.8929595055761L507.7366080560169,682.7594185692852L509.80163578114417,685.2764831233712L509.12652740380423,685.8920362446851L507.47352641657506,687.5293305500508L509.0748313686742,688.3257819709753L515.1268610123877,691.4880478289876L520.5256656654611,694.3195397901392L521.3781102369157,694.806191310721L528.8976655910832,700.3664685665454L529.8116774014451,702.4594189142273L528.314369616738,706.5443787345458L523.4578324458347,701.4287968651852L515.9549338898989,699.7690230404091L514.615318451565,702.6193794476073L512.437737709096,707.0914435286227L518.0884068139012,710.7302937440593L518.7965599865865,711.119570059931L517.8952032247167,716.9788983876235L514.223724865342,717.6450272208795L512.2418960569335,721.9982083430252L509.6979838198352,727.3539080672307L508.11723483044904,727.6699498076762L506.0614373950974,728.1873487370476L506.0608021480975,728.08691988079L506.0398326309137,724.7717611673053L507.8068893131969,718.8264288838884L509.6652377034977,716.3940693913025L508.2337434134837,713.7897634907829L506.17944224800533,709.976797614121L503.5154304510814,704.3423881172728L502.58716849460484,703.9416965362689L499.96142722871735,702.93580495825L497.5058029906987,698.0834981905253L491.9977593897561,696.030127364769L488.3796709468194,691.437668488201L482.1457524367618,690.6289699947008L475.9552898709502,685.6218741680377L475.65782657306136,685.4111076123227L475.58483424768707,685.3077055221252L468.19721749922445,677.7659846957447L462.83636428883113,671.0448845860658L460.7237217578893,659.719202744362L456.73735993493136,658.3056114621648L454.245695041735,656.6439281498879L450.33999879910385,654.1776283497941L448.31827675036004,654.8825131179378L446.4458159911711,655.4892092555546L443.93526482319356,657.9996044143995L441.4179301108875,660.3983983832782L437.96760501455117,661.0864322444324L430.0356447277373,666.8446392165157L414.0997721463118,662.3853632444776L401.7527972455971,664.8038183782552L400.1138899771131,671.484844004802L399.8373291736283,678.0974711908286L390.99385859666165,684.6337406883404L379.95918469584626,685.5995541420345L378.6993310171362,689.31077204301L378.08753105098975,689.8417203302454L372.6915921681371,694.7191219155807L368.1206298411193,703.3468364731195L370.57527843986725,710.0927146988813L369.7653371767377,710.7933083258847L364.8899340476157,714.3717300087375L362.72261339454207,719.4390857012154L361.9776966005708,721.2585972749412L356.94260543917636,722.1383798271257L355.0414184402124,722.4598326982231L347.54883802281404,730.0221541165442L336.34928096395146,728.2784050319228L334.3686083020975,727.9380789894576L327.99159979515844,726.6100508497162L323.25595204057015,728.8030984123113L321.74363375863305,729.4400590937132L317.63004161485117,732.9474851740638L313.4241305388039,731.2236598177951L310.9637709446888,726.9662649180577L310.8846391349219,726.9506315405856L309.6916037600579,720.1741701480337L307.5917084411784,719.2397295223453L301.8969904061794,716.736001514905L297.7694382034133,718.8360592434888L293.54157153324866,716.3861229756692L288.742992734327,716.5592951146252L290.8222799977669,711.2687600679915L291.9626329399666,708.3351700162525L292.36837185660795,704.3109056524705L292.6705080017741,701.4960712477482L289.06561089954215,699.552764311173L288.0110156427603,694.9802599141406L290.2374667165582,688.0534982027984L293.8981964188233,685.2663535179393L294.5605879265678,684.7951349869263L296.1577002542504,680.4998661019524L298.9563201693997,675.0166701377364L299.35605053970625,674.276769698238L300.1630106204636,669.5840976572431L299.3905805222854,665.3635047131507L299.8645128673919,661.5199538289316L302.06094267416404,653.7864693755079L299.7866764145631,648.2626223229697L312.98807891483045,642.8219182986624L320.12061095918756,645.8837694008312L322.4100799746605,646.8717053222492L327.7261723749679,647.8274424299574L333.24630222884923,648.8926564265237L341.48713989244004,652.386520569403L345.79120715497913,652.7344543942985L348.3081898879212,652.9633205213981L350.99343070865484,653.5238889863142L361.4038497705212,655.5263542917567L366.6056873182931,649.4021042176724L366.6363660553485,649.1998337725697L371.4985739384516,627.1796175377195L371.06987028627856,626.1757868255219L365.3313038413796,613.975106024547L360.5672545133249,607.3036426036178L349.6084553966413,600.8543936710362L349.66980954206286,600.123692737059L350.36749613912684,592.3912546049382L360.5912159531733,591.6354938246614L363.3934846729782,592.8497549912155L372.78257745938964,596.6847295385585L372.44104309925683,583.2386376345893L378.76737424401483,589.3135815594085L397.4886358922903,582.6256537549001L399.85628065427943,576.2016599615099L400.88685040154024,573.3346212620186L407.61354567923513,571.6746527857689L413.76700021032684,570.0041505717304L415.3460382266512,568.9939115743857L417.932484502947,567.2261615542915L425.991555939141,550.3347847552438L436.21268813644934,546.2462730546126L442.0958131966226,547.0330075596063L443.69020642507166,544.6510452110457L449.6914054298487,544.4115697519587L450.8078732373739,547.0904997431227L456.0322152695555,541.424152179715L454.9097619918982,537.6502015806346L454.6374514790222,536.8692836498872L454.6837761509796,535.0127324397117L454.7300726029255,529.971938146771L452.6512899930109,523.8996793764921L452.33291556416293,522.9965190697227L452.4025591217677,521.8962279489584L452.94667531417804,510.3862637166345L454.25580011149174,507.1190898683848L456.4251403857898,503.5566045907425L462.41132992961417,503.10303455542055L462.7977861503085,502.67417625812243L464.9372072708089,499.86036518491255L468.5401036523692,497.6620157342587L470.45586865122976,496.50308837821035L470.16144685060516,500.766668375721L470.0139365745439,502.89281408576653L468.4956212915931,505.7411090746092L467.8336455602918,506.94244773914147L468.47888880116386,510.429993334262L472.08608775320954,512.3563122491399L470.24315074015215,516.9500061591102L468.26149952172415,515.5370864317823L462.895698987258,524.1423565186637L464.1643284328044,529.0473630330409L464.4897476008081,530.1610492712501L464.5066508949377,531.149637226432L464.39658154937473,534.8698169514839L471.43971509130614,538.0061028370354L471.29908074459945,540.0733420843534L471.15009830229167,542.3549223558184L475.15232833391116,541.187762980045L478.4323207595817,540.3061001753973L479.34457866650354,539.5681613647374L482.5226216628064,537.0282417378071L490.3922093097484,541.9634542707531L493.74405371316004,545.9100399413383L498.62684352236056,542.3484207734098L509.6060805321004,536.7303435456093L518.381510976658,532.4125345873418L525.4479628861347,534.2903469212962L526.0536811586308,537.2217840726915L532.8457271975948,537.0703039690504L534.2541572248581,531.645164935798L543.6601667063142,527.2075229011353L541.5872040370556,517.0504722128572L541.3124035103476,507.71592194765105L544.140165400124,499.81761338244155L544.2005163450059,499.81396124065316L550.1803477621482,495.14426274776633L556.2270302528276,504.0416150939624L561.5997167286769,503.273754459698L561.6135012754779,502.7114217677299L562.0578624168005,493.65917990459945L562.2001561235471,486.2716478529551L559.9032079930108,488.0594180742348L555.5214917115693,483.9731974412596L555.3946148331972,483.869025838084L554.2456399850792,476.6365737734005L562.1678477268133,472.4172504080574L565.6353680470423,471.2944560021151L570.1122645100854,469.8215980258716L577.2922783303504,471.2608046207405L583.9028981731973,470.0383321778371L590.2836770484961,462.16007694508755L582.90432582776,456.89730411330936L571.5271181231814,459.2258269358915L560.8182462119344,465.02044909509937L559.688448964893,465.3503517041644L550.6008428001174,468.5008071492505L546.4309083396159,461.7187596020228L540.00842158814,457.92672989320374L540.6623320192489,445.0871670504231L536.9801512643548,433.2932923962386L537.8170914800542,430.6111023448834L539.4262269202867,425.465537054769L544.267158699136,416.6722745952941L551.2035977572724,407.9586905135004L556.5693871917935,400.8352104945003L558.1249095345747,399.452732819066L560.1572556612133,397.64523614208326L558.9827792102803,391.8878507933322L550.5263103827641,386.09897312226167L547.6577158702277,387.461377893807L541.0457443924798,390.6992864858504L536.054420621687,400.729746264797L537.4306165017326,409.03738381909545L528.5488017097664,420.3489343471773L517.338287655116,432.30344898064163L513.2616325010832,450.889267320734L517.9465507534372,459.90373466446965L524.0623140155025,466.68260790395584L524.2431860065471,466.90772875912717L523.8215438333037,468.07845120408035L518.7421799627202,481.439610802935L512.0256648692778,484.5485182857352L509.98370728551,503.88605238038815L509.7647172348459,505.67966051925134L506.02527056366745,517.2965396786155L497.6863479308265,516.0977790537229L493.78117115792406,525.7997769667338L485.70886006035886,526.2407127996846L483.77300830101314,514.5929523409791L478.46188522395653,500.3845334344462L475.7389259331975,489.6916185870018L473.97684408396856,482.46601127756117L472.3295571623737,479.31956153345857L469.9489841340846,474.52210028562865L464.901005245016,479.7916763487906L456.2503572509923,488.42976413757424L451.87544751386076,489.6255710596797L447.2464704476714,490.7754534557587L442.18408021605717,486.6388112510797L438.61589401734335,483.7212996780287L437.53413456325075,469.8525909942837L438.2500259695749,439.92558893347893L444.6066685493355,432.01007153095986L461.3300518729992,421.8859692973816L473.76509183276085,408.6129295341649L484.95524905057033,389.74243191037385L492.20906499439894,375.83365885990065L498.70156575043137,362.5023451967385L507.6718658992894,351.60826880684124L521.6210712045234,332.5887302060902L532.586764514422,325.5414336085497L541.0501380131484,325.7992984874644L544.0840090777048,319.8115320677456L547.7075799772119,312.5905464376075L556.8669227271613,312.2642907185707L565.4145178224305,308.2253578074807L582.5611400766873,317.30217957398884L576.6269676271437,322.1581380171476L583.5417011382639,330.71902880507935L588.0467919363136,324.71000784324474L592.1005104077373,327.87908742770355L597.9530379937147,332.32354611362143L612.7836731965499,333.07082323540305L636.0351772179921,344.9434024213738L641.7476630606662,350.6272753912335L644.3072438051536,359.6316166210638L640.006928411663,368.3545565925398L632.2369169540475,373.73095612883344L631.7644046422279,373.96290838244533L625.0274513250364,372.6933182011501L605.0506720741536,368.3908903201984L602.2940670897405,370.15885015131437L601.3362034737445,370.83683300202244L605.1951117888656,373.90515713133743L612.1691751764545,379.3114074967648L612.1918907720409,379.4348186808443L616.6241223596909,399.42067537969217L624.8408955672477,401.9566715979315L630.0934335479857,404.501838842325L629.4976263825565,397.8996141374979L624.9337599102402,392.93705679861375L627.4876591900387,387.12032195279335L643.0894907693169,392.4272661862092L647.1033329454775,388.0780787923111L641.0261371821124,379.06563752113436L650.6630561913018,362.6294577219228L655.882087553148,362.19507749688114L662.2629651106571,365.58164811498716L662.8499790951236,355.3115042153048L661.1112533024553,353.54424737140243L656.1424124533803,348.39087016644044L656.4157329862293,340.9498217130656L656.4619544798865,339.4548362943448L655.6001667855014,338.3412664695941L650.3109185948211,331.76877529167336L665.9616357576076,332.13664217776955L669.3600721652933,336.56766632046504L671.2970253647122,339.1010067199642L665.115356212724,342.6745660048998L667.3706124285079,350.31746719979583L672.9173172038662,353.74420683865844L677.063686011177,350.7708545766312L680.2929029157367,348.3078409130866L679.5771456170712,343.8394915758116L678.85284123467,339.2113930756062L687.5553283958849,329.16208073378755L701.0547963566127,311.1683123091841L705.0438061052532,310.37734264240964L703.803167156005,317.59586421010283L703.2144565915542,320.6062790223642L703.8516447354407,320.5100793847247L709.9972576874063,319.59342659050606L711.8231512000045,313.5586123484504L720.9917642634176,309.4708460750393L725.9561496663339,300.8232967712653L735.0135166914662,306.5203200862221L735.0578845597785,306.5008866001531L735.1136693052208,305.90457961024003L820.2582643158596,500.0111027684135L820.1026909855279,500.31301613929963L820.4302076368165,500.4030867834533L825.695685891788,512.4069453573276L825.2233002678873,512.4980881278295L824.5911402790241,516.5922756577436L813.4557255166676,514.775898277623L802.6630608938109,519.4555069952663L797.1585357022118,527.0169046765438L787.2438048737238,525.7262041294672L769.1162943769622,523.6626604909827L758.3480606525764,527.7595469325429L747.8752271743093,544.7756503747117L749.5779278707934,553.2217348586771L740.1600470972961,548.9752792939361L738.1518838707811,563.149657201701L740.9860407072459,564.7087963781452L739.2190059316655,574.4271179140101L747.8502184991714,580.1046635008324L753.2442138942757,578.1075410796682L760.327337373852,583.9332915508594L761.3808493051208,589.7970206675595L765.7480745306092,590.3493110670581L764.4269914183456,597.932320168077L757.5710170921728,602.0326644372801L753.3142976651465,615.6838657473132L763.5372895866424,623.806475232826L765.0100515942996,631.3581062809285L777.7302082640442,641.3299256437385L774.259866635058,647.2098298416145L773.7232464909944,650.347722648726L769.9165863044548,650.67497508741L762.4275534090611,645.8480038990904L760.0660220223112,646.1286760542183L754.2822874139111,645.1821493645328L750.5291660205257,641.4008149585004L742.3988938244393,641.2685945409397L738.0223905255397,644.2669645946988L736.0183274770543,642.5967197983567L723.7601506426565,640.246058922516L711.5051517360594,641.4159904237217L704.3546480594446,641.128638253132ZM538.3180192665608,197.67292998905907L530.0691755185355,206.05719500395492L522.7689895834492,202.15164195995635L525.1969655009171,197.1215684947406L522.5118501395409,191.3005048404658L530.247169278584,187.0208688771969L532.3335326630137,193.91609796802538ZM500.50509242339166,164.02350864360903L501.8726296124318,157.05622042400773L507.07647609996036,156.25664237558863L511.76199596449436,163.30221834737915L524.5533847681636,177.60610221936156L515.3935727357728,185.7541297086558L513.7030925342779,199.6735302468528L510.3400481092572,203.29794344469906L508.73634708207436,218.51753647705516L503.7723597815003,219.39930124763293L495.0165854994716,208.22675984558703L498.6967543295169,201.74175332390803L492.8281086800175,196.10736029795396L485.77500308662303,179.85767960202293L483.4768785509659,164.22295768276012L493.48298527340177,157.19055443207628L495.35223158534245,164.35996518936201ZM543.9474443401946,153.8141936580496L539.8042116452876,165.28647602131173L529.4372408560978,168.54056235705048L518.4572973917051,165.77050972554343L517.5895825963435,160.342970568071L512.4113819887981,160.17521560389662L508.30051362380493,150.8337066525621L518.8059058178029,144.6081559822013L524.103263476773,149.22176268087026L527.1615977133144,142.7610271165861L536.3239298562022,147.30341320772584ZM601.5643415886959,131.07072924927957L606.9297195863618,125.53874833561963L611.8307721921448,123.8272455368683L614.234252684352,129.05494225480152L614.5507446406552,123.56010884462694L616.4936357410409,119.2813563007619L622.7650396337621,122.00761990782348L622.5655701414341,125.4972592397628L619.0652824902932,129.66837888128794L616.5469591591866,132.0709291798389L617.1804457708686,135.59412046565876L614.2266509960433,140.01943503850794L609.1412583119679,136.51859380316614L609.168520484796,129.63820854341338Z" style="stroke: none; fill: rgb(229, 236, 246); fill-opacity: 1;"/></g><g class="layer lakes"><path d="M592.7573688619386,446.21240566706115L598.0303746996317,438.2147484568126L609.6724876606182,445.1006518231826L613.2549570117633,450.7820578502625L612.7888437691106,452.86316358204886L611.3398328311405,452.5121631296216L611.8986170476577,456.6527043226474L606.2772684879766,457.19352063839756L605.6951392984424,461.3768104101423L603.1046304602933,461.65115108776195L602.6957949156805,458.9082225170157L598.15742535771,453.23952924869684L597.5909253867499,450.4952504785156ZM493.3504308803103,478.45528964234586L493.3941227706641,480.05686182945885L492.9016372380363,482.33556640803465L488.7192024125638,486.0396159875105L485.6745513845037,487.2352141986229L483.2428978631935,487.18252909879357L483.85380505863554,483.7839693446773L483.7669030798551,482.41411338682735L484.96444489604124,481.52758573491144L487.0909917867144,481.1126870305618L488.2367031216834,479.4185198663323L490.852079219737,476.8239196887779ZM626.506908734342,426.6582757317791L629.9813194990242,433.46356739746693L633.1363282805936,438.7173716106116L632.0762820777493,442.38970961916107L627.5205878248431,444.2201781769744L624.161029116159,442.58712387439505L626.2739385921418,442.1936953848565L628.6182611109043,442.10671531785636L625.2709309642802,438.6822023271875L623.0829096954717,437.0551356306188L620.0303132365634,433.4152199835505L617.8788580541853,428.98595225699523L617.8747114215364,428.02080911575547L620.2544905012902,428.43587738575286L619.5246614493443,425.66644491756085L621.1381302060001,427.4279380447523L622.9760024841053,429.1409242590263L623.7164777839928,428.2776885128643L625.0305380198453,427.1829301201319L622.5261722772715,424.62726538823847L618.7213703461149,421.564715890099L621.0273566226042,421.38378354963015L622.6043385334929,422.0622513922681Z" style="stroke: none; fill: rgb(255, 255, 255); fill-opacity: 1;"/></g><g class="layer countries"><path d="M765.7480745306092,590.3493110670581L764.4269914183456,597.932320168077L757.5710170921728,602.0326644372801L753.3142976651465,615.6838657473132L763.5372895866424,623.806475232826L765.0100515942996,631.3581062809285L777.7302082640442,641.3299256437385L774.259866635058,647.2098298416145L773.7232464909944,650.347722648726L769.9165863044548,650.67497508741L762.4275534090611,645.8480038990904L760.0660220223112,646.1286760542183L754.2822874139111,645.1821493645328L750.5291660205257,641.4008149585004L742.3988938244393,641.2685945409397L738.0223905255397,644.2669645946988L736.0183274770543,642.5967197983567L723.7601506426565,640.246058922516L711.5051517360594,641.4159904237217L704.3546480594446,641.128638253132L703.6475512629353,642.6568459219208L691.3133481772753,635.6051775552188L681.4203776367069,633.4394113589477L673.2195489012469,628.2083664338171L678.5357839226986,625.3319595156177L683.0770189218196,614.5624892405864L677.8035456338439,611.0378971351741L688.0745623909056,603.9149694075212L687.3202460106464,601.5312134518965L680.9023975198078,604.8630170890974L680.0302783512975,599.842935048723L683.2407206002242,595.8347670853356L690.3973496371989,593.2518393947506L690.6794935011171,589.2238227650519L687.6194088825815,583.3836785716501L689.2550526936448,576.7549678826142L688.3958814144646,573.3908925689403L676.6676278140387,572.165960064027L672.3755831212452,573.2070114554913L666.6677256250217,568.7985283954442L661.4247317454514,571.8166070896093L651.2977340856035,569.5882214816489L650.9959282965874,567.271143798445L647.4910452461311,562.7391738182616L641.540643311312,563.1743043951866L640.3164138814574,559.7114568901189L641.7093353486904,556.9674123234371L635.948430455536,551.2449630835815L628.6868436215724,553.5608084186663L626.3979077374751,553.3900708616693L625.0043427845318,556.3268320219274L622.2068259576561,556.3328618895696L619.2807642203418,548.9614323441202L617.0106004842496,545.2725762008907L618.1937582167664,544.0009310374448L624.01919578069,543.5264867123792L626.3492547453737,540.5211928522745L623.7927741376532,537.645793271076L618.6974246072754,536.2546488844878L618.8071264167622,534.0387647153049L615.6368570430986,532.3239973377612L610.0724968997639,525.0924637718862L611.0899919159264,521.6186687812927L609.5751261987263,516.0598300651819L602.4548140349389,514.1745149740407L599.0733707481719,516.0802527122239L597.6830164797092,513.1433539267047L590.1276208539654,511.0852503333082L587.1175677327417,504.0553801123573L585.8041556306223,498.13219505769996L582.2961308985209,495.71437136206634L584.6441096968621,491.3664653408953L581.3476061166197,480.0053466497707L585.1049706666889,472.2036776177864L583.9028981731973,470.0383321778371L590.2836770484961,462.16007694508755L582.90432582776,456.89730411330936L594.0336726882362,438.6695559433375L598.6598367732602,430.3324171851482L599.8695361187124,423.26517091028745L589.7409655629176,415.4940558751947L590.9047759819016,406.4890200767604L584.2800784292415,397.1112460803364L586.5210035631196,384.8712605911653L577.8884966000325,369.82734898695685L581.4817044454524,358.57619848669606L572.0121185318451,350.096437127046L571.5451262865683,339.7797710243585L575.5613051696434,337.919285597764L583.5417011382639,330.71902880507935L588.0467919363136,324.71000784324474L597.9530379937147,332.32354611362143L612.7836731965499,333.07082323540305L636.0351772179921,344.9434024213738L641.7476630606662,350.6272753912335L644.3072438051536,359.6316166210638L640.006928411663,368.3545565925398L631.7644046422279,373.96290838244533L618.4716230943939,371.08436501533106L605.0506720741536,368.3908903201984L601.3362034737445,370.83683300202244L612.1691751764545,379.3114074967648L613.7023499657919,385.63902447602413L616.6241223596909,399.42067537969217L624.8408955672477,401.9566715979315L630.0934335479857,404.501838842325L629.4976263825565,397.8996141374979L624.9337599102402,392.93705679861375L627.4876591900387,387.12032195279335L643.0894907693169,392.4272661862092L647.1033329454775,388.0780787923111L641.0261371821124,379.06563752113436L650.6630561913018,362.6294577219228L655.882087553148,362.19507749688114L662.2629651106571,365.58164811498716L662.8499790951236,355.3115042153048L656.1424124533803,348.39087016644044L656.4619544798865,339.4548362943448L650.3109185948211,331.76877529167336L665.9616357576076,332.13664217776955L671.2970253647122,339.1010067199642L665.115356212724,342.6745660048998L667.3706124285079,350.31746719979583L672.9173172038662,353.74420683865844L680.2929029157367,348.3078409130866L678.85284123467,339.2113930756062L687.5553283958849,329.16208073378755L701.0547963566127,311.1683123091841L705.0438061052532,310.37734264240964L703.2144565915542,320.6062790223642L709.9972576874063,319.59342659050606L711.8231512000045,313.5586123484504L720.9917642634176,309.4708460750393L725.9561496663339,300.8232967712653L735.0135166914662,306.5203200862221L735.1136693052208,305.90457961024003L820.2582643158596,500.0111027684135L820.1026909855279,500.31301613929963L820.4302076368165,500.4030867834533L825.695685891788,512.4069453573276L825.2233002678873,512.4980881278295L824.5911402790241,516.5922756577436L813.4557255166676,514.775898277623L802.6630608938109,519.4555069952663L797.1585357022118,527.0169046765438L787.2438048737238,525.7262041294672L769.1162943769622,523.6626604909827L758.3480606525764,527.7595469325429L747.8752271743093,544.7756503747117L749.5779278707934,553.2217348586771L740.1600470972961,548.9752792939361L738.1518838707811,563.149657201701L740.9860407072459,564.7087963781452L739.2190059316655,574.4271179140101L747.8502184991714,580.1046635008324L753.2442138942757,578.1075410796682L760.327337373852,583.9332915508594L761.3808493051208,589.7970206675595ZM601.5643415886959,131.07072924927957L606.9297195863618,125.53874833561963L611.8307721921448,123.8272455368683L614.234252684352,129.05494225480152L614.5507446406552,123.56010884462694L616.4936357410409,119.2813563007619L622.7650396337621,122.00761990782348L622.5655701414341,125.4972592397628L619.0652824902932,129.66837888128794L616.5469591591866,132.0709291798389L617.1804457708686,135.59412046565876L614.2266509960433,140.01943503850794L609.1412583119679,136.51859380316614L609.168520484796,129.63820854341338ZM554.5449796101292,537.0364515619102L541.6102229722305,538.065073666289L532.8457271975948,537.0703039690504L534.2541572248581,531.645164935798L543.6601667063142,527.2075229011353L551.0688811100542,528.94479700575L554.2763047881676,530.5906039653845L553.8227665341963,534.0232561492941ZM673.6976995677619,240.25868405720894L678.6607032610341,222.7915942618488L674.6939074445057,215.9743427673152L680.3513719904842,203.9903575225204L685.9142441795153,193.74326917898645L694.5288723357062,213.3822787895176L691.3765257083671,223.31461459356035L691.2233769916543,240.8929316778739L690.0461518246722,258.0253018852103L695.7222214988975,269.78994863375976L709.2669031650576,277.96725356461593L707.0500652269724,280.358385746134L690.9208216088489,284.40790649121027L687.3002559241587,278.5154922157103L677.440996391046,277.6062852912395L673.9913268535767,269.85861867548977L677.5035336879109,265.0001235662189L674.4777512465815,256.9408816423437L678.3920667354184,240.71371881998425ZM646.2094835085661,624.8610949628287L647.7649481043649,621.6598042160177L653.764874369117,623.1151978365002L656.3782514226081,623.059712931931L657.7773621784896,625.109333198289L659.0546578074544,625.2920565698482L659.2949973931688,626.1906552644897L663.6372524097196,628.2017701939856L671.507650954075,625.9290177936732L670.8222578026159,630.2608455369464L662.4958416284211,633.8583974034983L652.8295819700004,642.2851994650131L648.049851548746,640.8223196978662L648.8730173153845,635.267594209787L639.6664102714792,633.3648259867274L640.6742631860823,631.0114297145913L647.6389690307858,625.9761812767017ZM500.50509242339166,164.02350864360903L501.8726296124318,157.05622042400773L507.07647609996036,156.25664237558863L511.76199596449436,163.30221834737915L524.5533847681636,177.60610221936156L515.3935727357728,185.7541297086558L513.7030925342779,199.6735302468528L510.3400481092572,203.29794344469906L508.73634708207436,218.51753647705516L503.7723597815003,219.39930124763293L495.0165854994716,208.22675984558703L498.6967543295169,201.74175332390803L492.8281086800175,196.10736029795396L485.77500308662303,179.85767960202293L483.4768785509659,164.22295768276012L493.48298527340177,157.19055443207628L495.35223158534245,164.35996518936201ZM583.5417011382639,330.71902880507935L575.5613051696434,337.919285597764L571.5451262865683,339.7797710243585L572.418415011027,329.14385940802276L565.1062478583663,324.04529160489335L557.7332936565707,329.9008071861225L556.2629984905417,341.0901725409527L551.8341684048036,348.02268866825193L545.8599025389127,344.9483521020402L539.0162459174815,346.2492940600713L532.6555154532286,338.7843533612262L529.7512237019885,342.8165545189671L526.5129323713176,343.64105232953375L526.1861346245437,353.3052416564001L515.9879060407951,351.307469048135L514.7974429826155,359.4583733138684L509.5811361004008,359.56621381133834L506.12625879531413,369.8335845337589L500.6362608141312,385.5228415953694L491.57258315318137,404.91423123564755L493.6791376686626,409.6109145646743L491.5458687744938,414.96617409439295L485.68482744426774,414.61883637540063L481.43816158610804,427.10996165803544L481.3307262837514,444.7537761331008L485.14906212837616,451.4435564150041L482.74259465362456,466.65297819299315L477.1014483525653,475.2500884081014L473.97684408396856,482.46601127756117L469.9489841340846,474.52210028562865L456.2503572509923,488.42976413757424L447.2464704476714,490.7754534557587L438.61589401734335,483.7212996780287L437.53413456325075,469.8525909942837L438.2500259695749,439.92558893347893L444.6066685493355,432.01007153095986L461.3300518729992,421.8859692973816L473.76509183276085,408.6129295341649L484.95524905057033,389.74243191037385L498.70156575043137,362.5023451967385L507.6718658992894,351.60826880684124L521.6210712045234,332.5887302060902L532.586764514422,325.5414336085497L541.0501380131484,325.7992984874644L547.7075799772119,312.5905464376075L556.8669227271613,312.2642907185707L565.4145178224305,308.2253578074807L582.5611400766873,317.30217957398884L576.6269676271437,322.1581380171476ZM543.9474443401946,153.8141936580496L539.8042116452876,165.28647602131173L529.4372408560978,168.54056235705048L518.4572973917051,165.77050972554343L517.5895825963435,160.342970568071L512.4113819887981,160.17521560389662L508.30051362380493,150.8337066525621L518.8059058178029,144.6081559822013L524.103263476773,149.22176268087026L527.1615977133144,142.7610271165861L536.3239298562022,147.30341320772584ZM538.3180192665608,197.67292998905907L530.0691755185355,206.05719500395492L522.7689895834492,202.15164195995635L525.1969655009171,197.1215684947406L522.5118501395409,191.3005048404658L530.247169278584,187.0208688771969L532.3335326630137,193.91609796802538ZM433.09950143418723,594.1557421733003L436.47886688657775,597.4802678491709L447.2993290320885,600.3433047867151L442.91408318108375,608.0288451223968L441.37465075450086,616.1800984145503L439.06406846470577,617.9982960999129L435.5672678835996,616.696855629645L435.6274630951491,619.6203607973664L429.4008973237609,625.6825587004193L428.8332532510685,630.8258291255836L432.7437367777835,629.37743706064L435.0731742829701,634.529094961455L434.53902951084217,637.7981110089275L436.5292059692064,642.1785605333183L433.52427594291885,645.4600590873052L434.97723546063366,654.4130960959L439.2680567776635,656.1544790421299L437.96760501455117,661.0864322444324L430.0356447277373,666.8446392165157L414.0997721463118,662.3853632444776L401.7527972455971,664.8038183782552L400.1138899771131,671.484844004802L390.3193604366032,671.8819754850541L381.6825631392514,665.557121845138L378.3931465358131,667.5811717317713L363.96452556902074,660.3590239533623L361.4038497705212,655.5263542917567L366.6056873182931,649.4021042176724L371.4985739384516,627.1796175377195L365.3313038413796,613.975106024547L360.5672545133249,607.3036426036178L349.6084553966413,600.8543936710362L350.36749613912684,592.3912546049382L360.5912159531733,591.6354938246614L372.78257745938964,596.6847295385585L372.44104309925683,583.2386376345893L378.76737424401483,589.3135815594085L397.4886358922903,582.6256537549001L400.88685040154024,573.3346212620186L407.61354567923513,571.6746527857689L408.20538527985127,575.9135346866376L411.6485465326516,576.5117354096261L414.6185234411922,581.6265375375694L419.2481423446332,587.6213895378432L423.1818533140096,587.1524068186669L429.28768804547536,592.9926205974357L430.9013231437707,594.1854931588011ZM448.03953600462705,673.7797584073694L453.566921898684,669.7987912464179L454.4978659769426,679.5224758376269L451.2528079335082,688.0908103040954L447.59053471267146,685.5542138459501L446.0735654470638,677.8406899351124ZM473.97684408396856,482.46601127756117L477.1014483525653,475.2500884081014L482.74259465362456,466.65297819299315L485.14906212837616,451.4435564150041L481.3307262837514,444.7537761331008L481.43816158610804,427.10996165803544L485.68482744426774,414.61883637540063L491.5458687744938,414.96617409439295L493.6791376686626,409.6109145646743L491.57258315318137,404.91423123564755L500.6362608141312,385.5228415953694L506.12625879531413,369.8335845337589L509.5811361004008,359.56621381133834L514.7974429826155,359.4583733138684L515.9879060407951,351.307469048135L526.1861346245437,353.3052416564001L526.5129323713176,343.64105232953375L529.7512237019885,342.8165545189671L537.2260478542541,349.6750001483956L546.2840811033979,358.86932084444754L548.1539021831701,380.7226769171251L550.5263103827641,386.09897312226167L541.0457443924798,390.6992864858504L536.054420621687,400.729746264797L537.4306165017326,409.03738381909545L528.5488017097664,420.3489343471773L517.338287655116,432.30344898064163L513.2616325010832,450.889267320734L517.9465507534372,459.90373466446965L524.2431860065471,466.90772875912717L518.7421799627202,481.439610802935L512.0256648692778,484.5485182857352L509.7647172348459,505.67966051925134L506.02527056366745,517.2965396786155L497.6863479308265,516.0977790537229L493.78117115792406,525.7997769667338L485.70886006035886,526.2407127996846L483.77300830101314,514.5929523409791L478.46188522395653,500.3845334344462ZM590.1276208539654,511.0852503333082L597.6830164797092,513.1433539267047L599.0733707481719,516.0802527122239L602.4548140349389,514.1745149740407L609.5751261987263,516.0598300651819L611.0899919159264,521.6186687812927L610.0724968997639,525.0924637718862L615.6368570430986,532.3239973377612L618.8071264167622,534.0387647153049L618.6974246072754,536.2546488844878L623.7927741376532,537.645793271076L626.3492547453737,540.5211928522745L624.01919578069,543.5264867123792L618.1937582167664,544.0009310374448L617.0106004842496,545.2725762008907L619.2807642203418,548.9614323441202L622.2068259576561,556.3328618895696L616.1195220358693,557.9042192997259L614.271029176276,560.7688663587144L614.6643935476641,566.7495725597223L611.5509367746622,566.1155111148943L605.0334808632473,567.5388908697179L602.7652332957331,565.0387304557488L600.2561607105512,567.4015599916058L597.3449786362354,566.0430334327589L591.5253314963352,566.5182131563618L583.053470123358,564.5463257678641L575.6102227385084,564.4297010607878L569.9774754514941,565.1603510324436L566.2304811873424,568.6976188445738L562.7711644163284,569.5121686969246L562.2215756277324,564.1947487593897L559.5113614246253,558.9175381895536L563.6817028774033,556.1109591844786L563.3634883184646,551.3793902584342L560.9964372283617,546.9050229144309L560.2614389849025,541.6313273060008L567.095906194608,541.1762481484103L574.3669936218876,535.9168439302803L575.344423525766,529.0136340636082L580.6342705562218,524.4986369783816L579.4300455031257,519.0918653582079L583.3464164266645,516.5558524183826ZM622.2068259576561,556.3328618895696L625.0043427845318,556.3268320219274L626.3979077374751,553.3900708616693L628.6868436215724,553.5608084186663L635.948430455536,551.2449630835815L641.7093353486904,556.9674123234371L640.3164138814574,559.7114568901189L641.540643311312,563.1743043951866L647.4910452461311,562.7391738182616L650.9959282965874,567.271143798445L651.2977340856035,569.5882214816489L661.4247317454514,571.8166070896093L666.6677256250217,568.7985283954442L672.3755831212452,573.2070114554913L676.6676278140387,572.165960064027L688.3958814144646,573.3908925689403L689.2550526936448,576.7549678826142L687.6194088825815,583.3836785716501L690.6794935011171,589.2238227650519L690.3973496371989,593.2518393947506L683.2407206002242,595.8347670853356L680.0302783512975,599.842935048723L680.9023975198078,604.8630170890974L674.9443009720075,607.0856385491529L670.5595904661955,611.7971690003819L663.4320550307127,613.8425854164368L657.5013558283649,619.2827736623003L659.0546578074544,625.2920565698482L657.7773621784896,625.109333198289L656.3782514226081,623.059712931931L653.764874369117,623.1151978365002L647.7649481043649,621.6598042160177L646.2094835085661,624.8610949628287L644.8538951072478,623.7309615106783L632.2538351679132,622.8462907479515L631.0424129684644,618.7412893280348L624.0177145661859,621.2607262292646L622.0185453250633,627.9178514942208L617.0444169349075,637.1363088623596L613.2047086415148,635.6743193248141L609.6417548238439,637.9995967835773L605.8617302256531,636.291711678026L607.7145221443902,634.8181148291793L608.5829463078479,630.7615252925455L610.3277032396718,626.8963838987943L609.4981891979012,624.9185003466113L611.0039577930197,623.7855403033336L611.9819188870961,625.2224696621415L616.6329619898089,625.0180117861861L618.6256506583109,623.8043977915328L616.9882062245402,622.8818130840135L617.3121445720278,621.0611408016655L614.1800361861881,618.5597652751629L612.4268530259955,613.9773769502103L609.3937212922567,612.4890029274978L609.4391393714714,608.4940298194055L605.5102653373932,605.8444309701982L602.3485093485613,605.8168519568908L596.2589690328286,602.8592409046454L591.2857694996018,604.5756975730529L589.6113229185197,606.5431312527315L586.428609656719,606.8779088838644L584.7631106059816,609.774999142788L579.164549246732,611.3682884414454L576.6806779027445,613.3766116369205L572.8107944968646,610.8954864675463L567.8725575648965,611.3084285911806L562.9698648983963,610.3297219119927L559.8110161538171,613.0694721104824L559.0412663172524,610.0917739769727L554.592236579725,607.1476322693011L555.7312705437716,602.3522150799088L557.6611270771186,599.2773434873507L559.3517192971709,599.7892819956571L557.067682529051,594.6839403917352L563.202579378343,584.5028485572575L566.7936913570684,582.8360483938501L567.3280234830108,579.4960783185293L562.7711644163284,569.5121686969246L566.2304811873424,568.6976188445738L569.9774754514941,565.1603510324436L575.6102227385084,564.4297010607878L583.053470123358,564.5463257678641L591.5253314963352,566.5182131563618L597.3449786362354,566.0430334327589L600.2561607105512,567.4015599916058L602.7652332957331,565.0387304557488L605.0334808632473,567.5388908697179L611.5509367746622,566.1155111148943L614.6643935476641,566.7495725597223L614.271029176276,560.7688663587144L616.1195220358693,557.9042192997259ZM560.2614389849025,541.6313273060008L560.9964372283617,546.9050229144309L563.3634883184646,551.3793902584342L563.6817028774033,556.1109591844786L559.5113614246253,558.9175381895536L562.2215756277324,564.1947487593897L562.7711644163284,569.5121686969246L567.3280234830108,579.4960783185293L566.7936913570684,582.8360483938501L563.202579378343,584.5028485572575L557.067682529051,594.6839403917352L559.3517192971709,599.7892819956571L557.6611270771186,599.2773434873507L550.1844689781061,595.2367586385695L544.8151636481697,597.2306669691461L541.1265286761916,596.1589564922369L536.7972215228958,598.8881557462076L532.7955735894641,594.9519558798758L529.7140484753318,596.6480505040304L529.2778160137063,595.9267576058273L525.5456675559514,590.2515895774002L519.9677666355441,589.772687303147L519.1353699181592,586.0920138359025L513.9825935392047,584.820269909282L512.9530913841065,587.9059062839168L508.8009871320987,585.5279844015735L509.23570936111247,582.2383689812345L503.65646346734445,581.327871933673L500.1001626327526,577.5117302687656L497.12251044634763,569.938380004902L497.7294469962801,565.8753034300117L495.9199702589494,559.4283133410928L493.3443975217253,555.2104965563855L495.3764300649464,551.9862345923887L493.74405371316004,545.9100399413383L498.62684352236056,542.3484207734098L509.6060805321004,536.7303435456093L518.381510976658,532.4125345873418L525.4479628861347,534.2903469212962L526.0536811586308,537.2217840726915L532.8457271975948,537.0703039690504L541.6102229722305,538.065073666289L554.5449796101292,537.0364515619102L558.2586974273634,538.0750946674901ZM515.2889773226619,612.2336801114394L514.815653473235,617.0378367816114L510.40274892633494,617.1035187236148L511.97900637492637,619.5802826759649L509.46208108781747,627.0870837634219L507.99105545045364,628.9668150942733L501.1014035352966,629.3139035809091L497.11348105657123,631.8966866813479L490.56568703359034,631.0223494786734L479.3184579613274,627.8225917652276L477.65094113875074,623.7355761158137L469.8131533187733,625.5703850867857L468.81436926679436,627.7123215061414L464.13225453196605,625.8699014648802L460.1130637425447,625.3806871992282L456.68194779267316,623.1366643222318L458.0195210178482,620.3964285401842L457.84143059308536,618.3058883774085L460.1857471691667,617.7942997126979L464.0462107959211,621.1924514717663L465.22977762693586,618.1202455907489L472.08675995094035,618.8939684314504L477.7576953104865,616.9795312667989L481.4608266958609,617.4851765280652L483.87027988126374,619.8236388176797L484.60889080686445,617.8604893960454L483.63329256407343,610.3337156152077L486.4365802099545,608.920502432856L489.28016754362835,603.6227711067404L494.91005131174865,607.4460352760905L499.2770431930824,602.642901700764L501.9603322450164,601.8017179055852L507.9093513606233,605.3306177142398L511.4925279932229,604.6604791177768L515.0519662718361,606.8030019621204L514.4544348171485,608.2782301316746ZM554.592236579725,607.1476322693011L559.0412663172524,610.0917739769727L559.8110161538171,613.0694721104824L555.2323220964964,615.8868161672327L552.0687692328643,623.8946193367186L547.7667385318302,631.9231211250378L541.4547267324695,634.4217011061013L536.5001296862811,634.1282346357139L530.5344075794859,637.4579629938006L527.5738056948067,639.2077366334187L520.9799736144439,637.2256376893854L514.9415269063902,632.392528719123L512.3534332118616,630.9854191253182L510.80998409447153,627.1747870208953L509.46208108781747,627.0870837634219L511.97900637492637,619.5802826759649L510.40274892633494,617.1035187236148L514.815653473235,617.0378367816114L515.2889773226619,612.2336801114394L519.3277483402647,615.1756880679778L522.2259052313145,616.3549785394282L528.6844587148341,614.701366412011L529.2335465910002,612.3871158306697L532.2863356036947,611.9623926836132L535.9697599859128,610.036749952896L536.8353059736864,610.7309023395532L540.4491979447725,609.1009286666148L542.116456824486,606.297162891649L544.566836830115,605.4366435871535L553.0098342810254,608.5058958975525ZM589.6113229185197,606.5431312527315L591.2857694996018,604.5756975730529L596.2589690328286,602.8592409046454L602.3485093485613,605.8168519568908L605.5102653373932,605.8444309701982L609.4391393714714,608.4940298194055L609.3937212922567,612.4890029274978L612.4268530259955,613.9773769502103L614.1800361861881,618.5597652751629L617.3121445720278,621.0611408016655L616.9882062245402,622.8818130840135L618.6256506583109,623.8043977915328L616.6329619898089,625.0180117861861L611.9819188870961,625.2224696621415L611.0039577930197,623.7855403033336L609.4981891979012,624.9185003466113L610.3277032396718,626.8963838987943L608.5829463078479,630.7615252925455L607.7145221443902,634.8181148291793L605.8617302256531,636.291711678026L603.8123820629305,631.3498373601221L604.0690664283527,626.3254225445583L603.1757064485104,621.3251116114162L597.8808303024059,615.0552389187078L594.8860200943083,610.474833058576L592.0884282893853,607.42925845477ZM605.8617302256531,636.291711678026L609.6417548238439,637.9995967835773L613.2047086415148,635.6743193248141L617.0444169349075,637.1363088623596L617.6589664057976,640.0613101280283L614.0786856027382,642.9197789047245L611.4938567016832,642.2187458233201L610.9625980911339,656.1186487915193L605.9791522445114,655.4935071491127L599.659809887797,652.1099190033607L590.3685402292357,655.78376556122L586.6165058499403,659.0337456087207L574.5747567478038,659.5094939532739L568.1143744612164,658.2848952172335L565.0150607137174,659.337042431883L562.3381049459463,654.9142643465921L560.7339790817352,652.9726818678265L562.4944224017294,650.8976397234488L560.3633997332092,649.7098871904599L557.9784204869044,652.336364275717L553.1102602513427,649.3552435152893L552.1745212906774,644.6784161437922L547.111166338398,642.2875607187233L546.0547689320102,638.7343709809062L541.4547267324695,634.4217011061013L547.7667385318302,631.9231211250378L552.0687692328643,623.8946193367186L555.2323220964964,615.8868161672327L559.8110161538171,613.0694721104824L562.9698648983963,610.3297219119927L567.8725575648965,611.3084285911806L572.8107944968646,610.8954864675463L576.6806779027445,613.3766116369205L579.164549246732,611.3682884414454L584.7631106059816,609.774999142788L586.428609656719,606.8779088838644L589.6113229185197,606.5431312527315L592.0884282893853,607.42925845477L594.8860200943083,610.474833058576L597.8808303024059,615.0552389187078L603.1757064485104,621.3251116114162L604.0690664283527,626.3254225445583L603.8123820629305,631.3498373601221ZM579.4300455031257,519.0918653582079L580.6342705562218,524.4986369783816L575.344423525766,529.0136340636082L574.3669936218876,535.9168439302803L567.095906194608,541.1762481484103L560.2614389849025,541.6313273060008L558.2586974273634,538.0750946674901L554.5449796101292,537.0364515619102L553.8227665341963,534.0232561492941L554.2763047881676,530.5906039653845L551.0688811100542,528.94479700575L543.6601667063142,527.2075229011353L541.5872040370556,517.0504722128572L549.2426792028089,512.806374234241L560.7247844973564,512.7358204097065L567.3064341603108,510.9419278979243L568.5209724474461,513.3941041159046L572.2220612991263,513.8232489523157ZM582.2961308985209,495.71437136206634L585.8041556306223,498.13219505769996L587.1175677327417,504.0553801123573L590.1276208539654,511.0852503333082L583.3464164266645,516.5558524183826L579.4300455031257,519.0918653582079L572.2220612991263,513.8232489523157L568.5209724474461,513.3941041159046L567.3064341603108,510.9419278979243L560.7247844973564,512.7358204097065L549.2426792028089,512.806374234241L541.5872040370556,517.0504722128572L541.3124035103476,507.71592194765105L544.2005163450059,499.81396124065316L550.1803477621482,495.14426274776633L556.2270302528276,504.0416150939624L561.5997167286769,503.273754459698L562.0578624168005,493.65917990459945L567.5410113954381,491.01559805696854L570.5449700893424,492.2016931323345L576.7609097106708,496.20768017715704ZM583.9028981731973,470.0383321778371L585.1049706666889,472.2036776177864L581.3476061166197,480.0053466497707L584.6441096968621,491.3664653408953L582.2961308985209,495.71437136206634L576.7609097106708,496.20768017715704L570.5449700893424,492.2016931323345L567.5410113954381,491.01559805696854L562.0578624168005,493.65917990459945L562.2001561235471,486.2716478529551L559.9032079930108,488.0594180742348L555.3946148331972,483.869025838084L554.2456399850792,476.6365737734005L562.1678477268133,472.4172504080574L570.1122645100854,469.8215980258716L577.2922783303504,471.2608046207405ZM493.74405371316004,545.9100399413383L495.3764300649464,551.9862345923887L493.3443975217253,555.2104965563855L495.9199702589494,559.4283133410928L497.7294469962801,565.8753034300117L497.12251044634763,569.938380004902L500.1001626327526,577.5117302687656L496.82318102483424,578.7812449965364L494.89241250235773,577.3892272930963L493.00372331277583,579.6072231490679L487.61242483351486,581.8781870055875L484.80656787054124,584.6926788183398L479.285717336438,587.1115977271942L480.4866849754362,590.6283973281992L481.1881782792451,595.5997684265143L485.02849991516985,598.5185342229113L489.28016754362835,603.6227711067404L486.4365802099545,608.920502432856L483.63329256407343,610.3337156152077L484.60889080686445,617.8604893960454L483.87027988126374,619.8236388176797L481.4608266958609,617.4851765280652L477.7576953104865,616.9795312667989L472.08675995094035,618.8939684314504L465.22977762693586,618.1202455907489L464.0462107959211,621.1924514717663L460.1857471691667,617.7942997126979L457.84143059308536,618.3058883774085L449.70641545328056,614.3169787311542L447.94736766603853,616.71404950877L441.37465075450086,616.1800984145503L442.91408318108375,608.0288451223968L447.2993290320885,600.3433047867151L436.47886688657775,597.4802678491709L433.09950143418723,594.1557421733003L433.99118329741214,589.0491781177857L432.6505284735495,586.2918699212951L434.1724980329194,578.4486112608562L433.93321918706044,565.9240082979471L438.34394799246917,566.2777867187332L440.52455892520953,561.9339117507802L443.14705239322376,551.230530420093L442.0958131966226,547.0330075596063L443.69020642507166,544.6510452110457L449.6914054298487,544.4115697519587L450.8078732373739,547.0904997431227L456.0322152695555,541.424152179715L454.6374514790222,536.8692836498872L454.7300726029255,529.971938146771L459.9294680483069,531.8001356081573L464.4897476008081,530.1610492712501L464.39658154937473,534.8698169514839L471.43971509130614,538.0061028370354L471.15009830229167,542.3549223558184L478.4323207595817,540.3061001753973L482.5226216628064,537.0282417378071L490.3922093097484,541.9634542707531ZM562.3381049459463,654.9142643465921L565.0150607137174,659.337042431883L568.1143744612164,658.2848952172335L574.5747567478038,659.5094939532739L586.6165058499403,659.0337456087207L590.3685402292357,655.78376556122L599.659809887797,652.1099190033607L605.9791522445114,655.4935071491127L610.9625980911339,656.1186487915193L607.2724298020044,661.3024161137389L605.2705470206424,669.7456389240433L608.6364551337832,675.7938687975603L601.3480653918107,675.105502816866L593.248673899998,679.5474268665704L593.6659560693614,685.1098405702282L586.1241185596848,686.9693907399178L579.8638761561863,683.5690404926634L573.3888561729053,687.2634628939552L567.1379678234812,687.3358367908361L565.9956782189441,679.9964192307693L561.5334637799465,676.6438898912054L562.8522157977434,675.0249187275869L561.8569051976051,673.6663137903943L562.9533466305548,670.0195044740899L565.8916867958928,666.2330332804804L561.5517558413133,661.6316827798328L560.5362790526088,657.6034959870254ZM602.2311979243729,751.9612638583972L601.4322771874545,755.3621126246856L588.4672265174104,757.5140940698466L588.3881393983111,755.7139649900023L577.2070640405856,754.4454602986259L578.4596542727526,749.6289255076125L583.7226542659248,753.0092438614728L590.6466716275381,751.691735714755L597.4612095634839,751.8429594794843L597.414737312345,753.8579227980733ZM567.1379678234812,687.3358367908361L573.3888561729053,687.2634628939552L579.8638761561863,683.5690404926634L586.1241185596848,686.9693907399178L593.6659560693614,685.1098405702282L593.248673899998,679.5474268665704L597.6221565825731,682.0464795617395L595.7161450663327,689.376453458327L593.862388328463,690.7877994379161L588.6542638258055,690.9989200506247L584.1439686883807,690.4059914374067L574.1749669404821,694.2055098502818L580.5988291238535,699.9547110773565L576.36301838713,702.1348321579165L571.58311836306,702.5140451017883L566.6969446205748,697.1059405300934L565.2566560496168,699.638753617465L567.6656254575216,706.2447981725886L572.3244024843356,711.1517960640823L569.2320877747685,713.8071836356914L574.4793323888402,718.6552381191955L579.0593633324687,721.5123769596994L579.7416443773109,727.804874497871L571.3567505375732,725.4454314259846L574.4053738079266,730.9519291950849L568.8410481425063,732.4729461934692L572.9181436633252,742.0245510277623L567.0630717997042,742.6468395559364L559.4474989807621,738.3230500475136L555.5681045712493,729.6112475976778L553.5636285591687,722.2807714849431L549.9074816158665,717.343763200792L545.1331327757478,711.1325544545691L544.4405316722675,708.0378510840557L548.1153567192654,702.4019446503175L548.4656175789684,698.7433434750196L551.1411025362158,696.9805751854605L551.1268271244792,693.9433522239151L556.6474229646027,692.7091549902395L559.6878713652236,689.9819023460991L564.3417626309479,689.8711471556774L565.5737696937639,687.8551944701322ZM551.1268271244792,693.9433522239151L551.1411025362158,696.9805751854605L548.4656175789684,698.7433434750196L548.1153567192654,702.4019446503175L544.4405316722675,708.0378510840557L542.9297960959146,707.3007624260154L542.6598401142413,704.7889131822367L537.7156644815258,701.2637240342631L536.7333027441427,695.9431848196992L537.187694185655,688.2259729548152L538.1828671862057,684.7353298551583L536.6723604456478,682.9694903945386L536.0033302027422,679.4396435093593L539.3694060131488,673.7027031274774L539.9867054632175,675.8140358213387L542.1862981643528,674.6960368757188L544.1297880434635,677.657362831925L546.1429530879069,678.7781918953585L546.9527369556097,682.8034219834752L546.0136625490087,686.7098821687168L547.4714126943092,691.4026340103292ZM512.3534332118616,630.9854191253182L514.9415269063902,632.392528719123L520.9799736144439,637.2256376893854L527.5738056948067,639.2077366334187L530.5344075794859,637.4579629938006L532.6368375283604,641.8158110447599L535.2884501347488,644.9047924075885L532.4085647340643,649.3341826114224L528.6161579802423,646.8967916535903L523.037581202975,647.2666364546157L516.1113555543269,645.5707127438085L512.3491913904563,645.8375062039655L510.63961078021043,648.22373331559L507.7120628440819,645.684961710241L506.0792013741782,650.423367267503L510.07113669116364,655.7185791436652L511.87538270225275,659.1767951277781L515.700591042712,663.4112776931843L518.928979392427,665.7995803842255L522.1578875804134,670.5196285804795L529.5944948927535,674.5846208857681L528.7549117637246,676.4435688395732L520.7875810841467,672.4881019766669L515.9388369440862,668.5103810852727L508.32853186654677,665.2463324749698L501.43028171420855,657.003507479734L503.04076599641184,656.0778719787362L499.3805052151181,651.3676626375064L499.23812901973434,647.4659637965032L494.0258359340452,645.6985411547123L491.5173152029272,650.5061278206832L489.16157520489634,646.6799441085215L489.4264032766703,642.7741828604106L489.71751445275873,642.5717542749958L495.2713482716199,643.0312933714434L496.7945948606557,641.081690811211L499.458612549298,642.9409948032461L502.6353697195306,643.1430523205697L502.5537961402289,639.950404746868L505.35236372619016,638.8037000295794L506.10979898636083,634.1539859548996ZM457.84143059308536,618.3058883774085L458.0195210178482,620.3964285401842L456.68194779267316,623.1366643222318L460.1130637425447,625.3806871992282L464.13225453196605,625.8699014648802L463.29233731215936,630.6019565202544L459.7187367477628,632.3053279293371L453.94998502899483,630.5670130863612L451.9845702361053,635.1161147135183L448.1688484843586,635.3094811900492L446.9233998367863,633.3722036269545L442.23705136483613,637.0014320104953L438.32961020610435,637.2490708121055L435.0731742829701,634.529094961455L432.7437367777835,629.37743706064L428.8332532510685,630.8258291255836L429.4008973237609,625.6825587004193L435.6274630951491,619.6203607973664L435.5672678835996,616.696855629645L439.06406846470577,617.9982960999129L441.37465075450086,616.1800984145503L447.94736766603853,616.71404950877L449.70641545328056,614.3169787311542ZM432.6505284735495,586.2918699212951L433.99118329741214,589.0491781177857L433.09950143418723,594.1557421733003L430.9013231437707,594.1854931588011L429.28768804547536,592.9926205974357L430.65744339238813,586.5490545810586ZM434.1724980329194,578.4486112608562L432.6505284735495,586.2918699212951L430.65744339238813,586.5490545810586L429.28768804547536,592.9926205974357L423.1818533140096,587.1524068186669L419.2481423446332,587.6213895378432L414.6185234411922,581.6265375375694L411.6485465326516,576.5117354096261L408.20538527985127,575.9135346866376L407.61354567923513,571.6746527857689L413.76700021032684,570.0041505717304L419.0973451158409,571.5241122404597L426.1523494238433,569.7437094101605L430.33331563445097,575.3550602537263ZM442.0958131966226,547.0330075596063L443.14705239322376,551.230530420093L440.52455892520953,561.9339117507802L438.34394799246917,566.2777867187332L433.93321918706044,565.9240082979471L434.1724980329194,578.4486112608562L430.33331563445097,575.3550602537263L426.1523494238433,569.7437094101605L419.0973451158409,571.5241122404597L413.76700021032684,570.0041505717304L417.932484502947,567.2261615542915L425.98136556659085,550.4422431141622L436.21268813644934,546.2462730546126ZM299.8645128673919,661.5199538289316L303.50140385780355,659.417553831666L307.15710123637405,658.554021996162L308.06460635023814,664.3588428483895L312.87448727270595,665.3774583519144L314.56988057773367,664.2793023050604L319.298964983665,665.6608880953104L320.5067133522623,671.5907435270137L316.0801525455655,673.9023346872648L314.19554862023296,682.3930470593655L312.51296126585726,683.6982845663225L311.1341878697805,688.8744679922083L307.3022988955097,689.0057993284962L309.2863009350226,696.3118534926696L305.490409226908,703.0248694750117L307.756646001529,706.8799844597388L305.9854682107116,709.5916571107507L301.93464142138913,713.0542409374165L301.8969904061794,716.736001514905L297.7694382034133,718.8360592434888L293.54157153324866,716.3861229756692L288.742992734327,716.5592951146252L291.9626329399666,708.3351700162525L292.6705080017741,701.4960712477482L289.06561089954215,699.552764311173L288.0110156427603,694.9802599141406L290.2374667165582,688.0534982027984L294.5605879265678,684.7951349869263L296.1577002542504,680.4998661019524L299.35605053970625,674.276769698238L300.1630106204636,669.5840976572431L299.3905805222854,665.3635047131507ZM301.8969904061794,716.736001514905L301.93464142138913,713.0542409374165L305.9854682107116,709.5916571107507L307.756646001529,706.8799844597388L305.490409226908,703.0248694750117L309.2863009350226,696.3118534926696L307.3022988955097,689.0057993284962L311.1341878697805,688.8744679922083L312.51296126585726,683.6982845663225L314.19554862023296,682.3930470593655L316.0801525455655,673.9023346872648L320.5067133522623,671.5907435270137L319.298964983665,665.6608880953104L314.56988057773367,664.2793023050604L312.87448727270595,665.3774583519144L308.06460635023814,664.3588428483895L307.15710123637405,658.554021996162L303.50140385780355,659.417553831666L299.8645128673919,661.5199538289316L302.06094267416404,653.7864693755079L299.7866764145631,648.2626223229697L312.98807891483045,642.8219182986624L322.4100799746605,646.8717053222492L333.24630222884923,648.8926564265237L341.48713989244004,652.386520569403L348.3081898879212,652.9633205213981L361.4038497705212,655.5263542917567L363.96452556902074,660.3590239533623L378.3931465358131,667.5811717317713L381.6825631392514,665.557121845138L390.3193604366032,671.8819754850541L400.1138899771131,671.484844004802L399.8373291736283,678.0974711908286L390.99385859666165,684.6337406883404L379.95918469584626,685.5995541420345L378.6993310171362,689.31077204301L372.6915921681371,694.7191219155807L368.1206298411193,703.3468364731195L370.57527843986725,710.0927146988813L364.8899340476157,714.3717300087375L361.9776966005708,721.2585972749412L355.0414184402124,722.4598326982231L347.54883802281404,730.0221541165442L336.34928096395146,728.2784050319228L327.99159979515844,726.6100508497162L321.74363375863305,729.4400590937132L317.63004161485117,732.9474851740638L313.4241305388039,731.2236598177951L310.8846391349219,726.9506315405856L309.6916037600579,720.1741701480337ZM350.08795434685396,529.8790383802691L349.61854736220687,538.6168913134638L342.1652444277266,547.9951365544953L327.9962130687427,552.2190403571498L318.26863488483235,548.1517324410104L326.8053789650903,537.3393395131411L325.8754761686762,524.5880349228917L337.32743361988696,517.4373975606123L343.69621789843757,512.9726137143364L343.7910496484848,519.5965402903122L341.01880796897416,525.7009363322255L345.31429744967903,526.3696483912343ZM464.13225453196605,625.8699014648802L468.81436926679436,627.7123215061414L469.8131533187733,625.5703850867857L477.65094113875074,623.7355761158137L479.3184579613274,627.8225917652276L490.56568703359034,631.0223494786734L489.64340022390127,636.695176437627L491.4593294482851,641.5607698281158L485.1455200670715,639.8273365056842L478.5740640118557,643.7076753950228L478.87179182288173,649.3694076384958L477.7711225658677,652.6265259209047L480.3448433149525,658.4248695811884L487.9084824561691,664.2844836786953L491.96641577906325,673.7098345296879L501.17006987090315,682.8929595055761L507.7366080560169,682.7594185692852L509.80163578114417,685.2764831233712L507.47352641657506,687.5293305500508L515.1268610123877,691.4880478289876L521.3781102369157,694.806191310721L528.8976655910832,700.3664685665454L529.8116774014451,702.4594189142273L528.314369616738,706.5443787345458L523.4578324458347,701.4287968651852L515.9549338898989,699.7690230404091L512.437737709096,707.0914435286227L518.7965599865865,711.119570059931L517.8952032247167,716.9788983876235L514.223724865342,717.6450272208795L509.6979838198352,727.3539080672307L506.0614373950974,728.1873487370476L506.0398326309137,724.7717611673053L507.8068893131969,718.8264288838884L509.6652377034977,716.3940693913025L506.17944224800533,709.976797614121L503.5154304510814,704.3423881172728L499.96142722871735,702.93580495825L497.5058029906987,698.0834981905253L491.9977593897561,696.030127364769L488.3796709468194,691.437668488201L482.1457524367618,690.6289699947008L475.65782657306136,685.4111076123227L468.19721749922445,677.7659846957447L462.83636428883113,671.0448845860658L460.7237217578893,659.719202744362L456.73735993493136,658.3056114621648L450.33999879910385,654.1776283497941L446.4458159911711,655.4892092555546L441.4179301108875,660.3983983832782L437.96760501455117,661.0864322444324L439.2680567776635,656.1544790421299L434.97723546063366,654.4130960959L433.52427594291885,645.4600590873052L436.5292059692064,642.1785605333183L434.53902951084217,637.7981110089275L435.0731742829701,634.529094961455L438.32961020610435,637.2490708121055L442.23705136483613,637.0014320104953L446.9233998367863,633.3722036269545L448.1688484843586,635.3094811900492L451.9845702361053,635.1161147135183L453.94998502899483,630.5670130863612L459.7187367477628,632.3053279293371L463.29233731215936,630.6019565202544ZM497.90599675228384,725.5924415883583L504.5392788831854,724.6795800566547L501.3941652470524,733.4255505502938L502.7582236989953,736.8333344065236L500.9249375155915,742.6510727041693L494.11406215038187,738.423804581013L489.5625790611464,737.1820988172733L477.30230189817536,731.2518513706266L478.70164991191444,725.5583789902132L488.96318110885176,726.7366734907275ZM446.6163071946893,693.2077374916673L450.99862497437164,690.004506137428L455.72050858824565,698.1430556325868L453.76640527741495,712.8943787001697L449.9057984495066,711.9911849761083L446.11108116479954,715.5130192858965L443.0038546286605,712.4059884236092L443.51239822244395,698.8972810310726L441.99829011446246,692.3208802098709ZM464.4897476008081,530.1610492712501L459.9294680483069,531.8001356081573L454.7300726029255,529.971938146771L452.33291556416293,522.9965190697227L452.94667531417804,510.3862637166345L454.25580011149174,507.1190898683848L456.4251403857898,503.5566045907425L462.41132992961417,503.10303455542055L464.9372072708089,499.86036518491255L470.45586865122976,496.50308837821035L470.0139365745439,502.89281408576653L467.8336455602918,506.94244773914147L468.47888880116386,510.429993334262L472.08608775320954,512.3563122491399L470.24315074015215,516.9500061591102L468.26149952172415,515.5370864317823L462.895698987258,524.1423565186637ZM481.92843431093513,516.9914745694614L484.0209785515267,523.2316262235577L479.58350478407436,533.0181054521997L472.5166419427012,525.8763017024676L471.707548870628,520.7709684859842ZM350.08795434685396,529.8790383802691L345.31429744967903,526.3696483912343L341.01880796897416,525.7009363322255L343.7910496484848,519.5965402903122L343.69621789843757,512.9726137143364L349.5235040046489,513.6142486329513L355.42200476954906,522.4825919911898ZM373.13040100976247,532.6313509650744L369.6647367833045,524.5250393419226L369.63957002942266,524.2988306458651L361.60399059340057,520.7525591091213L360.5314246423645,517.2091095455155L364.05600420240495,512.2690933437997L362.4119694720266,508.48714453982166L357.6511386442786,513.5338147770569L359.51070034820236,501.85294161993886L357.34744587549824,494.9717618912174L362.19366553228724,482.77909796283393L369.1288839149183,473.7233154913881L374.13200318527544,475.67436765704065L382.12755317900655,476.016589248258L372.8204511534807,488.1812910258335L379.87485978860036,487.68394395668895L387.0618411788398,488.84981298610046L383.73108908593963,498.65039347406616L375.8861698672775,508.5158919590024L382.79368129765095,510.42760542090707L383.13834922376157,511.8251095495667L387.09153999646765,526.9969482450571L391.5733715700347,529.6383023882368L394.0378928274446,543.9155599865242L395.4042184819176,548.7860953311728L403.8153627030253,552.2572576643984L401.97077021803847,559.7110456555469L397.87736583369457,562.6446943235065L399.99378126358073,569.1509331058666L392.57290972632893,574.407482861979L382.75180232600405,572.9276939341977L369.642677702326,574.1260520054805L366.6179581353847,571.3738124384195L360.7796070289607,575.9682034090522L354.1655730532316,573.4005977655684L348.1660065161607,576.8047938261764L344.67231216027716,573.7734218444582L357.6908025022347,563.6856599689073L364.68904853674223,562.3154537162414L364.6414811775221,562.1991922656792L353.6078210073871,558.282292916133L352.45794015842694,553.2832207891341L360.6369263968181,550.9701084945784L357.86433894498947,543.913037286916L360.59977808149506,536.5076125541863L370.89178875257176,539.4055795353682ZM336.1391091158515,359.51183911604437L332.4246415511901,367.8914022668664L336.23556524369496,378.62926830931315L326.1589959328138,386.7154424715276L307.1034932431161,390.7283996897793L301.40816535979957,391.5996499379737L294.5676807278302,387.20467092652507L280.2597347081313,377.7392423612505L287.73049843889237,374.04864470708617L278.0611467559429,363.47789446294746L288.62049827002085,364.43333770903473L289.79749673056244,360.50402205632656L279.51239753172706,353.4115218867273L286.3217763822123,346.1733711941994L295.07135220457945,347.19689418776534L300.3197866989483,359.00783575390915L310.8918611276207,354.56440492151614L316.51338396225526,360.4435618357319L327.4746980293074,355.97816979062463ZM490.56568703359034,631.0223494786734L497.11348105657123,631.8966866813479L501.1014035352966,629.3139035809091L507.99105545045364,628.9668150942733L509.46208108781747,627.0870837634219L510.80998409447153,627.1747870208953L512.3534332118616,630.9854191253182L506.10979898636083,634.1539859548996L505.35236372619016,638.8037000295794L502.5537961402289,639.950404746868L502.6353697195306,643.1430523205697L499.458612549298,642.9409948032461L496.7945948606557,641.081690811211L495.2713482716199,643.0312933714434L489.71751445275873,642.5717542749958L491.4593294482851,641.5607698281158L489.64340022390127,636.695176437627ZM571.5451262865683,339.7797710243585L572.0121185318451,350.096437127046L581.4817044454524,358.57619848669606L577.8884966000325,369.82734898695685L586.5210035631196,384.8712605911653L584.2800784292415,397.1112460803364L590.9047759819016,406.4890200767604L589.7409655629176,415.4940558751947L599.8695361187124,423.26517091028745L598.6598367732602,430.3324171851482L594.0336726882362,438.6695559433375L582.90432582776,456.89730411330936L571.5271181231814,459.2258269358915L560.8182462119344,465.02044909509937L550.6008428001174,468.5008071492505L546.4309083396159,461.7187596020228L540.00842158814,457.92672989320374L540.6623320192489,445.0871670504231L536.9801512643548,433.2932923962386L539.4262269202867,425.465537054769L544.267158699136,416.6722745952941L556.5693871917935,400.8352104945003L560.1572556612133,397.64523614208326L558.9827792102803,391.8878507933322L550.5263103827641,386.09897312226167L548.1539021831701,380.7226769171251L546.2840811033979,358.86932084444754L537.2260478542541,349.6750001483956L529.7512237019885,342.8165545189671L532.6555154532286,338.7843533612262L539.0162459174815,346.2492940600713L545.8599025389127,344.9483521020402L551.8341684048036,348.02268866825193L556.2629984905417,341.0901725409527L557.7332936565707,329.9008071861225L565.1062478583663,324.04529160489335L572.418415011027,329.14385940802276ZM557.6611270771186,599.2773434873507L555.7312705437716,602.3522150799088L554.592236579725,607.1476322693011L553.0098342810254,608.5058958975525L544.566836830115,605.4366435871535L542.116456824486,606.297162891649L540.4491979447725,609.1009286666148L536.8353059736864,610.7309023395532L535.9697599859128,610.036749952896L532.2863356036947,611.9623926836132L529.2335465910002,612.3871158306697L528.6844587148341,614.701366412011L522.2259052313145,616.3549785394282L519.3277483402647,615.1756880679778L515.2889773226619,612.2336801114394L514.4544348171485,608.2782301316746L515.0519662718361,606.8030019621204L516.1085659889357,604.164989910214L519.4932832207423,604.3023803258853L522.0842643255622,603.0845715141211L522.2600811174245,601.9259435056617L523.6897753570744,601.3616867270631L524.163250159224,598.7219602062127L525.8600200427843,598.1450630575484L526.9555815759687,596.0058000589624L529.2778160137063,595.9267576058273L529.7140484753318,596.6480505040304L532.7955735894641,594.9519558798758L536.7972215228958,598.8881557462076L541.1265286761916,596.1589564922369L544.8151636481697,597.2306669691461L550.1844689781061,595.2367586385695ZM500.1001626327526,577.5117302687656L503.65646346734445,581.327871933673L509.23570936111247,582.2383689812345L508.8009871320987,585.5279844015735L512.9530913841065,587.9059062839168L513.9825935392047,584.820269909282L519.1353699181592,586.0920138359025L519.9677666355441,589.772687303147L525.5456675559514,590.2515895774002L529.2778160137063,595.9267576058273L526.9555815759687,596.0058000589624L525.8600200427843,598.1450630575484L524.163250159224,598.7219602062127L523.6897753570744,601.3616867270631L522.2600811174245,601.9259435056617L522.0842643255622,603.0845715141211L519.4932832207423,604.3023803258853L516.1085659889357,604.164989910214L515.0519662718361,606.8030019621204L511.4925279932229,604.6604791177768L507.9093513606233,605.3306177142398L501.9603322450164,601.8017179055852L499.2770431930824,602.642901700764L494.91005131174865,607.4460352760905L489.28016754362835,603.6227711067404L485.02849991516985,598.5185342229113L481.1881782792451,595.5997684265143L480.4866849754362,590.6283973281992L479.285717336438,587.1115977271942L484.80656787054124,584.6926788183398L487.61242483351486,581.8781870055875L493.00372331277583,579.6072231490679L494.89241250235773,577.3892272930963L496.82318102483424,578.7812449965364ZM529.5944948927535,674.5846208857681L522.1578875804134,670.5196285804795L518.928979392427,665.7995803842255L515.700591042712,663.4112776931843L511.87538270225275,659.1767951277781L510.07113669116364,655.7185791436652L506.0792013741782,650.423367267503L507.7120628440819,645.684961710241L510.63961078021043,648.22373331559L512.3491913904563,645.8375062039655L516.1113555543269,645.5707127438085L523.037581202975,647.2666364546157L528.6161579802423,646.8967916535903L532.4085647340643,649.3341826114224L535.3169258995182,649.222187406082L533.4711556933579,654.3231560715542L537.6014123628038,658.4608383613318L536.5738155567999,663.9247348258373L534.6715815001272,664.5113665325003L533.1559475911818,665.5901635824945L530.5764745287566,668.2334680687729ZM561.5334637799465,676.6438898912054L565.9956782189441,679.9964192307693L567.1379678234812,687.3358367908361L565.5737696937639,687.8551944701322L564.3417626309479,689.8711471556774L559.6878713652236,689.9819023460991L556.6474229646027,692.7091549902395L551.1268271244792,693.9433522239151L547.4714126943092,691.4026340103292L546.0136625490087,686.7098821687168L546.9527369556097,682.8034219834752L548.0147676508454,682.8497897161303L548.268609089698,680.4985524060498L553.0611009113959,678.5023179158268L554.9145877178673,677.9850450107422L557.7222809201471,677.0981528583759ZM530.5344075794859,637.4579629938006L536.5001296862811,634.1282346357139L541.4547267324695,634.4217011061013L546.0547689320102,638.7343709809062L547.111166338398,642.2875607187233L552.1745212906774,644.6784161437922L553.1102602513427,649.3552435152893L557.9784204869044,652.336364275717L560.3633997332092,649.7098871904599L562.4944224017294,650.8976397234488L560.7339790817352,652.9726818678265L562.3381049459463,654.9142643465921L560.5362790526088,657.6034959870254L561.5517558413133,661.6316827798328L565.8916867958928,666.2330332804804L562.9533466305548,670.0195044740899L561.8569051976051,673.6663137903943L562.8522157977434,675.0249187275869L561.5334637799465,676.6438898912054L557.7222809201471,677.0981528583759L554.9145877178673,677.9850450107422L554.5593503276156,677.0902417116824L555.5285729287814,675.7074611379355L556.25650897637,672.9108516096483L555.068045309024,673.0860565550017L553.3733462046309,671.0463878713365L552.0027795527002,670.6164868348781L550.7822138265707,668.8494424908804L549.1822658096858,668.2238989057664L547.9067895977083,666.6591644663636L546.5349155974433,667.4461800100887L545.5377301506342,671.2723902735859L543.6392627790815,672.1818264383642L544.2607269397864,671.1320761262232L540.9496480872442,668.9429055075577L538.2213903215453,667.8386261207811L536.9704219858389,666.3598813387445L534.6715815001272,664.5113665325003L536.5738155567999,663.9247348258373L537.6014123628038,658.4608383613318L533.4711556933579,654.3231560715542L535.3169258995182,649.222187406082L532.4085647340643,649.3341826114224L535.2884501347488,644.9047924075885L532.6368375283604,641.8158110447599ZM542.1862981643528,674.6960368757188L539.9867054632175,675.8140358213387L539.3694060131488,673.7027031274774L536.0033302027422,679.4396435093593L536.6723604456478,682.9694903945386L534.9048759793579,682.2262302145659L532.4359176735883,678.6588467524687L528.7549117637246,676.4435688395732L529.5944948927535,674.5846208857681L530.5764745287566,668.2334680687729L533.1559475911818,665.5901635824945L534.6715815001272,664.5113665325003L536.9704219858389,666.3598813387445L538.2213903215453,667.8386261207811L540.9496480872442,668.9429055075577L544.2607269397864,671.1320761262232L543.6392627790815,672.1818264383642ZM546.9527369556097,682.8034219834752L546.1429530879069,678.7781918953585L544.1297880434635,677.657362831925L542.1862981643528,674.6960368757188L543.6392627790815,672.1818264383642L545.5377301506342,671.2723902735859L546.5349155974433,667.4461800100887L547.9067895977083,666.6591644663636L549.1822658096858,668.2238989057664L550.7822138265707,668.8494424908804L552.0027795527002,670.6164868348781L553.3733462046309,671.0463878713365L555.068045309024,673.0860565550017L556.25650897637,672.9108516096483L555.5285729287814,675.7074611379355L554.5593503276156,677.0902417116824L554.9145877178673,677.9850450107422L553.0611009113959,678.5023179158268L548.268609089698,680.4985524060498L548.0147676508454,682.8497897161303Z" style="fill: none; stroke-miterlimit: 2; stroke: rgb(68, 68, 68); stroke-opacity: 1; stroke-width: 1px;"/></g><g class="layer lataxis"><path d="M79.75640118974081,727.9863375315446L101.85436239755279,737.3785192867138L124.17555584230422,746.266113384107L146.69495119436124,754.6387974588703L169.400672198255,762.492155933521L192.28074433428736,769.822047111976L215.32310113363974,776.6246053637941L238.51559054197543,782.8962431628281L261.8459813281776,788.6336529792115L285.30196953484284,793.8338090236791L308.87118496713015,798.4939688433062L332.54119771654103,802.6116747678184L356.29952471619197,806.184755205717L380.13363632412137,809.2113257895303L404.0309629311591,811.6897903695885L427.9789015898741,813.6188418558007L451.96482266110394,814.9974629069859L475.9760764745604,815.8249264673975L500,816.1007961501575L524.0239235254396,815.8249264673975L548.0351773388961,814.9974629069859L572.0210984101259,813.6188418558007L595.969037068841,811.6897903695885L619.8663636758787,809.2113257895303L643.700475283808,806.184755205717L667.458802283459,802.6116747678184L691.1288150328699,798.4939688433062L714.6980304651572,793.8338090236791L738.1540186718225,788.6336529792115L761.4844094580246,782.8962431628281L784.6768988663603,776.6246053637941L807.7192556657126,769.822047111976L830.599327801745,762.492155933521L853.3050488056389,754.6387974588702L875.8244441576958,746.2661133841069L898.1456376024472,737.3785192867138L920.2435988102592,727.9863375315446M124.43132857815812,626.1037903484522L144.19134272405046,634.5022865987454L164.1390028722297,642.4448147179779L184.2637890462837,649.9271859838709L204.55508785725965,656.9454543511922L225.00219810094222,663.4959185328169L245.59433640144363,669.5751239517081L266.32064289812917,675.1798645627896L287.1701869728794,680.307184543745L308.13197301466823,684.9543798538566L329.1949462184168,689.1189996600606L350.3479984150654,692.7988476294631L371.5799739297879,695.9919830876422L392.8796754652602,698.6967220421168L414.2358700068795,700.9116380704497L435.6372947468196,702.6355630725132L457.07266302379884,703.8675878865192L478.53067027542835,704.6070627684942L500,704.8535977349377L521.4693297245717,704.6070627684942L542.9273369762012,703.8675878865192L564.3627052531805,702.6355630725132L585.7641299931205,700.9116380704497L607.1203245347398,698.6967220421168L628.4200260702121,695.9919830876422L649.6520015849346,692.7988476294631L670.8050537815832,689.1189996600606L691.8680269853318,684.9543798538566L712.8298130271206,680.307184543745L733.6793571018709,675.1798645627896L754.4056635985564,669.5751239517081L774.9978018990578,663.4959185328169L795.4449121427403,656.9454543511922L815.7362109537164,649.9271859838707L835.8609971277704,642.4448147179777L855.8086572759496,634.5022865987454L875.5686714218418,626.1037903484522M170.34981176777848,521.4221353412191L187.69388990401978,528.7937988489751L205.20267171413445,535.7652426587913L222.86692343484998,542.3327901778296L240.67732931133293,548.4929778196604L258.6244965101222,554.2425568308863L276.69896007271166,559.5784950044646L294.89118790717043,564.4979782788312L313.1915858151672,568.9984122219761L331.5905025517493,573.0774233996937L350.0782349152058,576.7328606272804L368.6450328643323,579.9627961040259L387.2811046603973,582.7655264298933L405.97662203109957,585.1395735038574L424.72172535379195,587.0836853034232L443.5065288552393,588.5968365449179L462.32112582516714,589.6782292242016L481.1555938408523,590.32729303752L500,590.5436856822694L518.8444061591478,590.32729303752L537.6788741748328,589.6782292242016L556.4934711447606,588.5968365449179L575.278274646208,587.0836853034232L594.0233779689005,585.1395735038574L612.7188953396027,582.7655264298933L631.3549671356677,579.9627961040259L649.9217650847942,576.7328606272804L668.4094974482507,573.0774233996937L686.8084141848328,568.9984122219761L705.1088120928297,564.4979782788312L723.3010399272883,559.5784950044646L741.3755034898778,554.2425568308863L759.3226706886671,548.4929778196604L777.1330765651501,542.3327901778293L794.7973282858657,535.7652426587911L812.3061100959802,528.7937988489751L829.6501882322216,521.4221353412191M219.42749400727143,409.53836558484954L234.1894193467191,415.81255009175857L249.09152759573118,421.74609883503956L264.1259596958464,427.3358825858826L279.28478680378726,432.57895340990535L294.56001447296603,437.47254622183004L309.9435868695866,442.01408024373234L325.4273910211228,446.2011603660892L341.00326109492875,450.0315784109091L356.66298270472765,453.5033142962783L372.3982972427063,456.61453710171065L388.200906234931,459.3636060337353L404.0624757177883,461.74907129121743L419.97464063314203,463.7696748299528L435.9290092398891,465.4243510261333L451.91716753958735,466.7122272383351L467.930683713821,467.63262426773133L483.96111257096476,468.1850567162869L500,468.36923324274755L516.0388874290353,468.1850567162869L532.0693162861791,467.63262426773133L548.0828324604126,466.7122272383351L564.0709907601108,465.4243510261333L580.025359366858,463.7696748299528L595.9375242822117,461.74907129121743L611.7990937650691,459.3636060337353L627.6017027572938,456.61453710171065L643.3370172952724,453.5033142962783L658.9967389050713,450.0315784109091L674.5726089788773,446.2011603660892L690.0564131304134,442.01408024373234L705.439985527034,437.47254622183004L720.7152131962127,432.57895340990535L735.8740403041537,427.3358825858826L750.9084724042689,421.74609883503945L765.8105806532809,415.81255009175857L780.5725059927286,409.53836558484954M274.8902914186001,283.0982695482895L286.7341201626381,288.13219060530434L298.69042084617877,292.8928118348417L310.7528879677131,297.3776225853933L322.9151600357854,301.5842576620961L335.1708229239106,305.5104985740867L347.51341325324915,309.1542747044871L359.9364218012574,312.51366440240395L372.43329693451466,315.5868959963675L384.99744806391664,318.37234872867225L397.6222491204137,320.86855361013295L410.30104204946036,323.0741941947962L423.0271403223331,324.9881072742081L435.79383246246493,326.6092834908651L448.59438558493713,327.93686787052775L461.42204894726115,328.9701602731168L474.27005750957795,329.70861576195205L487.1316355023982,330.15184489114006L500,330.2996139109604L512.8683644976019,330.15184489114006L525.729942490422,329.70861576195205L538.5779510527389,328.9701602731168L551.4056144150629,327.93686787052775L564.2061675375351,326.6092834908651L576.9728596776669,324.9881072742081L589.6989579505396,323.0741941947962L602.3777508795863,320.86855361013295L615.0025519360834,318.37234872867225L627.5667030654854,315.5868959963675L640.0635781987427,312.51366440240395L652.4865867467508,309.1542747044871L664.8291770760894,305.5104985740867L677.0848399642146,301.5842576620961L689.247112032287,297.3776225853933L701.3095791538212,292.8928118348417L713.2658798373619,288.13219060530434L725.1097085813999,283.0982695482895M344.33232871707645,124.78930795955625L352.52256294232075,128.27036070182044L360.7905736660439,131.56242138339758L369.1320005132875,134.6637538407249L377.5424443909737,137.57272249629318L386.0174698078945,140.28779322121613L394.55260721389624,142.80753414429864L403.14335535702673,145.13061640717456L411.78518365740047,147.25581486511828L420.4735345965315,149.18200873316187L429.20382612087263,150.90818217717174L437.9714540582941,152.43342484957964L446.7717945462273,153.7569323694795L455.60020647019235,154.87800674684252L464.45203391142445,155.7960567506209L473.32260860230764,156.5105982205514L482.2072523883206,157.0212543224916L491.10127969519726,157.32775574715356L500,157.42994085213252L508.89872030480274,157.32775574715356L517.7927476116794,157.0212543224916L526.6773913976923,156.5105982205514L535.5479660885755,155.7960567506209L544.3997935298077,154.87800674684252L553.2282054537727,153.7569323694795L562.0285459417059,152.43342484957964L570.7961738791273,150.90818217717174L579.5264654034685,149.18200873316187L588.2148163425995,147.25581486511828L596.8566446429733,145.13061640717456L605.4473927861038,142.80753414429864L613.9825301921055,140.28779322121613L622.4575556090263,137.57272249629318L630.8679994867125,134.6637538407249L639.2094263339561,131.56242138339758L647.4774370576793,128.27036070182044L655.6676712829235,124.78930795955625" style="fill: none; stroke: rgb(238, 238, 238); stroke-opacity: 1; stroke-width: 1px;"/></g><g class="layer lonaxis"><path d="M79.75640118974081,727.9504762904785L90.88360812211437,702.583470318641L102.03045310268993,677.1716949370996L113.20545708404603,651.6957246910875L124.43132857815812,626.1037903484522L135.73202384873497,600.3412781423912L147.13312348643058,574.3498712823728L158.66228683613133,548.0665139834928L170.34981176777848,521.4221353412191L182.22933828358117,494.3400452982788L194.338751089813,466.73387702639934L206.72136200580087,438.50489135534735L219.42749400727143,409.53836558484954L232.51665580076775,379.698636046258L246.0606098515365,348.82210383325855L260.14783882037176,316.7070525404307L274.8902914186001,283.0982695482895L290.43403126635087,247.66276952218595L306.9769885717343,209.94932541101423L324.800678052483,169.31616021095942L344.33232871707645,124.78930795955625L355.2061291049721,100M356.29952471619197,806.184755205717L360.10883838684924,778.7144349703983L363.9203334127437,751.2283842040463L367.7414569830016,723.672898568336L371.5799739297879,695.9919830876422L375.44407573509784,668.1265660621591L379.3425092949552,640.0135705033247L383.2847323039487,611.5847936004743L387.2811046603973,582.7655264298933L391.3431290541936,553.4728189900237L395.48375958757623,523.613254626941L399.71780608199845,493.0800344332523L404.0624757177883,461.74907129121743L408.5381165969766,429.47362777585806L413.16926680902355,396.0767509676416L417.9861816613353,361.3402590482359L423.0271403223331,324.9881072742081L428.3420870374564,286.6601298690548L433.99870104733355,245.86826767722198L440.09324205129866,201.91835765647136L446.7717945462273,153.7569323694795L454.22627689712374,100M643.700475283808,806.184755205717L639.8911616131508,778.7144349703983L636.0796665872563,751.2283842040463L632.2585430169984,723.672898568336L628.4200260702121,695.9919830876422L624.5559242649022,668.1265660621591L620.6574907050448,640.0135705033247L616.7152676960513,611.5847936004743L612.7188953396027,582.7655264298933L608.6568709458064,553.4728189900237L604.5162404124237,523.613254626941L600.2821939180016,493.0800344332523L595.9375242822117,461.74907129121743L591.4618834030234,429.47362777585806L586.8307331909764,396.0767509676416L582.0138183386647,361.3402590482359L576.9728596776669,324.9881072742081L571.6579129625436,286.6601298690548L566.0012989526664,245.86826767722198L559.9067579487013,201.91835765647136L553.2282054537727,153.7569323694795L545.7737231028764,100" style="fill: none; stroke: rgb(238, 238, 238); stroke-opacity: 1; stroke-width: 1px;"/></g><g class="layer backplot"><g class="choroplethlayer"/></g><g class="layer frontplot"><g class="scatterlayer"><g class="trace scattergeo" style="opacity: 1;"><path class="point" d="M3,0A3,3 0 1,1 0,-3A3,3 0 0,1 3,0Z" transform="translate(560.6074760644926,614.4885157176293)" style="opacity: 1; stroke-width: 0px; fill: rgb(99, 110, 250); fill-opacity: 1;"/><path class="point" d="M3,0A3,3 0 1,1 0,-3A3,3 0 0,1 3,0Z" transform="translate(556.2703649576857,612.0559055646492)" style="opacity: 1; stroke-width: 0px; fill: rgb(99, 110, 250); fill-opacity: 1;"/><path class="point" d="M3,0A3,3 0 1,1 0,-3A3,3 0 0,1 3,0Z" transform="translate(558.50209752153,616.0641822385792)" style="opacity: 1; stroke-width: 0px; fill: rgb(99, 110, 250); fill-opacity: 1;"/><path class="point" d="M3,0A3,3 0 1,1 0,-3A3,3 0 0,1 3,0Z" transform="translate(551.4333212231776,605.0439694300694)" style="opacity: 1; stroke-width: 0px; fill: rgb(99, 110, 250); fill-opacity: 1;"/><path class="point" d="M3,0A3,3 0 1,1 0,-3A3,3 0 0,1 3,0Z" transform="translate(553.7664025412715,608.4941524691768)" style="opacity: 1; stroke-width: 0px; fill: rgb(99, 110, 250); fill-opacity: 1;"/></g></g></g></g></g><g class="funnelarealayer"/><g class="pielayer"/><g class="iciclelayer"/><g class="treemaplayer"/><g class="sunburstlayer"/><g class="glimages"/><defs id="topdefs-677055"><g class="clips"/></defs><g class="layer-above"><g class="imagelayer"/><g class="shapelayer"/></g><g class="infolayer"><g class="g-gtitle"/></g></svg>